<svg xmlns="http://www.w3.org/2000/svg" xmlns:xlink="http://www.w3.org/1999/xlink" width="1890" height="1000" viewBox="0 0 1890 1000">
  <defs>
    <style>
      .cls-1 {
        fill: none;
        stroke-width: 100px;
        stroke: url(#linear-gradient);
      }

      .cls-1, .cls-2, .cls-3, .cls-4 {
        fill-rule: evenodd;
      }

      .cls-2 {
        fill: #cd3c1a;
      }

      .cls-3 {
        fill: #ff6708;
      }

      .cls-4 {
        fill: #fff;
      }
    </style>
    <linearGradient id="linear-gradient" x1="1777.94" y1="497.891" x2="116.031" y2="497.89" gradientUnits="userSpaceOnUse">
      <stop offset="0" stop-color="#553cf7"/>
      <stop offset="1" stop-color="#0b73c3" stop-opacity="0.902"/>
    </linearGradient>
  </defs>
  <path id="wave.svg" class="cls-1" d="M116.032,770.624c178.178-197.66,364.9-308.313,561.057-317.448C910.577,442.3,1046.42,597.038,1281.82,569.424c182.96-21.461,347.75-143.223,496.11-344.275"/>
  <path id="brick_cursor.svg" class="cls-2" d="M1290.78,400.64h182.54v70.42H1290.78V400.64Z"/>
  <path id="Brick" class="cls-3" d="M65.733,471.061H232.977c57.156,0,79.962-24.241,79.962-61.449q0-46.509-48.146-59.194c28.437-9.02,41.951-27.342,41.951-55.529,0-40.309-27.592-60.6-81.651-60.6H65.733V471.061Zm74.331-57.5V374.941h71.515c19.709,0,27.029,6.483,27.029,19.45,0,12.12-7.6,19.167-27.029,19.167H140.064Zm0-83.153V291.788h63.913c20.553,0,28.437,6.765,28.437,19.167,0,12.967-7.321,19.45-28.437,19.45H140.064ZM338.278,471.061h74.331V391.008h38.855c25.621,0,33.5,3.383,40.544,16.913l32.378,63.14H604.63L566.9,398.055c-6.194-11.839-15.767-20.577-27.874-26.778,29.282-6.765,49.273-31.006,49.273-63.7,0-44.255-36.884-73.288-93.477-73.288H338.278V471.061Zm74.331-129.1V295.17h69.826c19.709,0,31.534,8.457,31.534,23.114,0,15.222-11.262,23.678-31.534,23.678H412.609Zm217.361,129.1H704.3V234.285H629.97V471.061Zm239.322-57.5c-40.544,0-65.04-23.395-65.04-61.167,0-38.617,22.806-60.6,62.787-60.6,32.1,0,50.4,14.094,53.214,34.953h74.331c0-58.631-50.4-95.838-126.982-95.838-83.9,0-137.962,47.637-137.962,121.77S783.7,474.443,867.6,474.443c76.583,0,126.982-37.207,126.982-95.837H920.253C917.438,399.464,899.981,413.558,869.292,413.558Zm150.628,57.5h74.33V407.639l41.67-38.335,65.89,101.757h86.15l-98.82-151.086,93.19-85.69h-91.78l-96.3,89.637V234.285h-74.33V471.061Z"/>
  <path id="Stream" class="cls-4" d="M339.593,639.059c0,56.52,57.586,57.963,99.751,60.609,26.5,1.683,46.985,3.848,46.985,18.519,0,11.064-11.806,16.6-36.865,16.6-31.564,0-47.707-8.658-47.707-25.734H336.943c0,46.178,36.864,71.912,108.425,71.912,68.188,0,105.052-23.329,105.052-70.71,0-53.393-63.609-52.191-110.112-55.8-20-1.443-36.864-3.848-36.864-16.114,0-11.3,13.011-19,36.864-19,24.818,0,42.166,8.178,42.166,24.773h64.573c0-45.938-36.865-70.951-103.847-70.951C377.421,573.159,339.593,597.21,339.593,639.059ZM644.871,778.074h63.61V628h84.572V576.045H560.058V628h84.813V778.074Zm165.048,0h63.609v-68.3h33.251c21.926,0,28.672,2.886,34.7,14.431l27.709,53.874h68.666l-32.28-62.292c-5.3-10.1-13.5-17.557-23.857-22.849,25.057-5.772,42.167-26.456,42.167-54.355,0-37.76-31.565-62.533-80-62.533H809.919V778.074ZM873.528,667.92V628h59.755c16.866,0,26.986,7.215,26.986,19.722,0,12.987-9.638,20.2-26.986,20.2H873.528ZM1059.54,778.074h191.07V727.567H1123.15v-30.3h105.77V652.528H1123.15V626.553h127.46V576.045H1059.54V778.074Zm200.22,0h67.71l16.87-43.773h97.34l16.86,43.773h67.95l-81.68-202.029H1341.44Zm102.65-90.432,23.37-60.127h14.46l23.37,60.127h-61.2Zm178.54,90.432h62.16V641.224l56.38,107.508h44.82l53.49-105.344V778.074h62.16V576.045h-87.22l-51.08,95.724-53.49-95.724h-87.22V778.074Z"/>
</svg>
